<svg width="20" height="20" viewBox="0 0 20 20" fill="none" xmlns="http://www.w3.org/2000/svg">
<path fill-rule="evenodd" clip-rule="evenodd" d="M9.99999 17.4967C5.78749 17.4967 2.38582 14.0234 2.50332 9.78419C2.61165 5.87086 5.87415 2.60836 9.78749 2.50003C14.0267 2.38253 17.5 5.78419 17.5 9.99669C17.5 11.1275 17.2492 12.2 16.8017 13.1625L17.7667 17.7817L13.1558 16.8025C12.1958 17.2484 11.1267 17.4967 9.99999 17.4967V17.4967Z" stroke="#A6A6A6" stroke-width="1.25" stroke-linecap="round" stroke-linejoin="round"/>
<path d="M10.1474 9.85236C10.2287 9.93372 10.2287 10.0656 10.1474 10.147C10.066 10.2283 9.93409 10.2283 9.85273 10.147C9.77137 10.0656 9.77137 9.93372 9.85273 9.85236C9.93409 9.771 10.066 9.771 10.1474 9.85236" stroke="#A6A6A6" stroke-width="1.25" stroke-linecap="round" stroke-linejoin="round"/>
<path d="M13.4806 9.85236C13.562 9.93372 13.562 10.0656 13.4806 10.147C13.3992 10.2283 13.2673 10.2283 13.186 10.147C13.1046 10.0656 13.1046 9.93372 13.186 9.85236C13.2673 9.771 13.3992 9.771 13.4806 9.85236" stroke="#A6A6A6" stroke-width="1.25" stroke-linecap="round" stroke-linejoin="round"/>
<path d="M6.81398 9.85236C6.89534 9.93372 6.89534 10.0656 6.81398 10.147C6.73262 10.2283 6.60071 10.2283 6.51935 10.147C6.43799 10.0656 6.43799 9.93372 6.51935 9.85236C6.60071 9.771 6.73262 9.771 6.81398 9.85236" stroke="#A6A6A6" stroke-width="1.25" stroke-linecap="round" stroke-linejoin="round"/>
</svg>
