<svg width="24" height="24" viewBox="0 0 24 24" fill="none" xmlns="http://www.w3.org/2000/svg">
<path d="M5.53999 19.0196C4.92999 19.0196 4.35999 18.8096 3.94999 18.4196C3.42999 17.9296 3.17999 17.1896 3.26999 16.3896L3.63999 13.1496C3.70999 12.5396 4.07999 11.7296 4.50999 11.2896L12.72 2.59956C14.77 0.429561 16.91 0.369561 19.08 2.41956C21.25 4.46956 21.31 6.60956 19.26 8.77956L11.05 17.4696C10.63 17.9196 9.84999 18.3396 9.23999 18.4396L6.01999 18.9896C5.84999 18.9996 5.69999 19.0196 5.53999 19.0196ZM15.93 2.40956C15.16 2.40956 14.49 2.88956 13.81 3.60956L5.59999 12.3096C5.39999 12.5196 5.16999 13.0196 5.12999 13.3096L4.75999 16.5496C4.71999 16.8796 4.79999 17.1496 4.97999 17.3196C5.15999 17.4896 5.42999 17.5496 5.75999 17.4996L8.97999 16.9496C9.26999 16.8996 9.74999 16.6396 9.94999 16.4296L18.16 7.73956C19.4 6.41956 19.85 5.19956 18.04 3.49956C17.24 2.72956 16.55 2.40956 15.93 2.40956Z" fill="#4A5763"/>
<path d="M17.34 10.4498C17.32 10.4498 17.29 10.4498 17.27 10.4498C14.15 10.1398 11.64 7.76985 11.16 4.66985C11.1 4.25985 11.38 3.87985 11.79 3.80985C12.2 3.74985 12.58 4.02985 12.65 4.43985C13.03 6.85985 14.99 8.71985 17.43 8.95985C17.84 8.99985 18.14 9.36985 18.1 9.77985C18.05 10.1598 17.72 10.4498 17.34 10.4498Z" fill="#4A5763"/>
<path d="M21 22.25H3C2.59 22.25 2.25 21.91 2.25 21.5C2.25 21.09 2.59 20.75 3 20.75H21C21.41 20.75 21.75 21.09 21.75 21.5C21.75 21.91 21.41 22.25 21 22.25Z" fill="#4A5763"/>
</svg>
