<svg width="24" height="24" viewBox="0 0 24 24" fill="none" xmlns="http://www.w3.org/2000/svg">
<path d="M23.9983 12.0004C23.9983 18.0612 19.5059 23.0717 13.6698 23.8848C13.1242 23.9605 12.5659 24 11.9992 24C11.345 24 10.7026 23.9479 10.0771 23.847C4.36379 22.9271 0 17.9729 0 12.0004C0 5.37294 5.37276 0 12 0C18.6272 0 24 5.37294 24 12.0004H23.9983Z" fill="#2F3341"/>
<path d="M13.6708 9.63613V12.2503H16.9046L16.3925 15.7717H13.6708V23.8849C13.1251 23.9606 12.5668 24.0001 12.0001 24.0001C11.346 24.0001 10.7036 23.948 10.078 23.8471V15.7717H7.0957V12.2503H10.078V9.05175C10.078 7.06737 11.6865 5.45801 13.6717 5.45801V5.45969C13.6775 5.45969 13.6826 5.45801 13.6885 5.45801H16.9054V8.50352H14.8034C14.1787 8.50352 13.6717 9.01055 13.6717 9.63529L13.6708 9.63613Z" fill="white"/>
</svg>
