<svg width="24" height="24" viewBox="0 0 24 24" fill="none" xmlns="http://www.w3.org/2000/svg">
<path d="M12.0273 0H11.9727C5.36035 0 0 5.36035 0 11.9727V12.0273C0 18.6397 5.36035 24 11.9727 24H12.0273C18.6397 24 24 18.6397 24 12.0273V11.9727C24 5.36035 18.6397 0 12.0273 0Z" fill="#2F3341"/>
<path d="M15.7134 4.88379H8.28711C6.23547 4.88379 4.56641 6.55285 4.56641 8.60449V15.3985C4.56641 17.4501 6.23547 19.1192 8.28711 19.1192H15.7134C17.765 19.1192 19.4341 17.4501 19.4341 15.3985V8.60449C19.4341 6.55285 17.765 4.88379 15.7134 4.88379ZM5.87895 8.60449C5.87895 7.27681 6.95943 6.19633 8.28711 6.19633H15.7134C17.0411 6.19633 18.1215 7.27681 18.1215 8.60449V15.3985C18.1215 16.7261 17.0411 17.8066 15.7134 17.8066H8.28711C6.95943 17.8066 5.87895 16.7261 5.87895 15.3985V8.60449Z" fill="white"/>
<path d="M11.9999 15.4599C13.9078 15.4599 15.4608 13.9077 15.4608 11.999C15.4608 10.0903 13.9086 8.53809 11.9999 8.53809C10.0912 8.53809 8.53906 10.0903 8.53906 11.999C8.53906 13.9077 10.0912 15.4599 11.9999 15.4599ZM11.9999 9.85147C13.1847 9.85147 14.1483 10.8151 14.1483 11.9998C14.1483 13.1845 13.1847 14.1481 11.9999 14.1481C10.8152 14.1481 9.85161 13.1845 9.85161 11.9998C9.85161 10.8151 10.8152 9.85147 11.9999 9.85147Z" fill="white"/>
<path d="M15.7801 9.09893C16.2939 9.09893 16.7126 8.68091 16.7126 8.16616C16.7126 7.65142 16.2947 7.2334 15.7801 7.2334C15.2655 7.2334 14.8477 7.65142 14.8477 8.16616C14.8477 8.68091 15.2655 9.09893 15.7801 9.09893Z" fill="white"/>
</svg>
