<svg width="92" height="91" viewBox="0 0 92 91" fill="none" xmlns="http://www.w3.org/2000/svg">
<circle cx="45.5963" cy="44.7934" r="9.54335" stroke="white" stroke-width="19.0864"/>
<path d="M50.8984 3.07709C50.8984 1.17517 52.5615 -0.310347 54.4278 0.0559608C75.3825 4.16884 91.1914 22.6334 91.1914 44.7933L91.1768 45.9701C90.5525 70.608 70.384 90.389 45.5957 90.389L44.4189 90.3744C20.1721 89.7601 0.628975 70.2169 0.0146484 45.9701L0 44.7933C0 22.6326 15.8099 4.16779 36.7657 0.0557711C38.632 -0.310435 40.2949 1.17507 40.2949 3.07693V16.2135C40.2949 17.7265 39.2213 19.0104 37.7754 19.4561C26.9521 22.793 19.0869 32.8749 19.0869 44.7933C19.087 59.4338 30.9552 71.3021 45.5957 71.3021C60.2362 71.3021 72.1044 59.4338 72.1045 44.7933C72.1045 32.8755 64.24 22.7946 53.4177 19.4573C51.9719 19.0114 50.8984 17.7276 50.8984 16.2146V3.07709Z" fill="white"/>
</svg>
