<svg width="24" height="24" viewBox="0 0 24 24" fill="none" xmlns="http://www.w3.org/2000/svg">
<path d="M12.0273 0H11.9727C5.36035 0 0 5.36035 0 11.9727V12.0273C0 18.6397 5.36035 24 11.9727 24H12.0273C18.6396 24 24 18.6397 24 12.0273V11.9727C24 5.36035 18.6396 0 12.0273 0Z" fill="#2F3341"/>
<path d="M19.1158 11.3635C18.7929 7.72104 15.7247 4.85547 11.9998 4.85547C8.05963 4.85547 4.85352 8.06158 4.85352 12.0001C4.85352 13.4463 5.28654 14.7942 6.029 15.92L5.13856 17.8935C4.90397 18.4123 5.32186 18.9891 5.88774 18.9294L9.20316 18.5762C10.0625 18.9428 11.0076 19.1455 11.9998 19.1455C12.252 19.1455 12.5026 19.132 12.7481 19.1068C12.9752 19.0824 13.198 19.048 13.4183 19.0042C16.6681 18.3467 19.125 15.4761 19.1444 12.0413V12.0001C19.1444 11.7865 19.1351 11.5721 19.1158 11.3635ZM15.9685 10.3915L14.4685 12.7055L13.6747 13.9298C13.5057 14.1904 13.1501 14.2527 12.9028 14.0643L11.5869 13.0671L10.7755 12.4524C10.7099 12.4028 10.6183 12.4045 10.5544 12.4566L8.56329 14.0811C8.24293 14.3426 7.80485 13.9491 8.02936 13.6027L9.43439 11.4367L10.2281 10.2116C10.3971 9.95093 10.752 9.88871 11 10.0762L12.2773 11.0449L13.0887 11.6587C13.1543 11.7091 13.2459 11.7074 13.3098 11.6545L15.4338 9.9131C15.7541 9.65076 16.1939 10.0443 15.9685 10.3915Z" fill="white"/>
</svg>
