<svg width="24" height="30" viewBox="0 0 24 30" fill="none" xmlns="http://www.w3.org/2000/svg">
<path d="M0 3.168C0 1.41836 1.41836 0 3.168 0H16.4672C17.3001 0 18.0994 0.327944 18.6922 0.912859L23.057 5.21925C23.6603 5.81454 24 6.62679 24 7.47439V26.352C24 28.1016 22.5816 29.52 20.832 29.52H3.168C1.41836 29.52 0 28.1016 0 26.352V3.168Z" fill="white"/>
<path d="M10.54 6.61985C10.6035 5.46985 12.02 5.32985 12.39 6.61985C12.686 7.65185 12.21 9.30985 11.907 10.4937C12.21 11.1898 13.2 12.4798 13.79 13.0498C15.76 12.7498 16.87 12.7833 17.6 13.1299C18.59 13.5999 18.38 14.7562 17.42 14.8498C16.6 14.9298 15.39 14.8498 13.67 13.4198C13.2233 13.4798 11.892 13.7378 10.3 14.2898C9.69001 15.2698 8.84 16.6102 8.12 17.1898C6.94 18.1398 6.05001 17.8298 5.80001 17.3098C5.46002 16.3898 6.84001 15.5298 9.35 14.2898C9.74667 13.5032 10.662 11.5358 11.15 9.95984C10.9367 9.44983 10.46 8.06984 10.54 6.61985ZM9.01001 14.8298C5.59001 16.3056 5.75003 17.2998 6.39003 17.3998C7.03003 17.4998 7.82002 16.6898 9.01001 14.8298ZM17.38 13.9498C17.34 13.0098 15.9 13.0098 14.02 13.3298C16.21 14.8898 17.38 14.6098 17.38 13.9498ZM11.74 10.8698C11.212 12.4298 10.7 13.5265 10.51 13.8799C11.934 13.4399 13.0633 13.2032 13.45 13.1398C12.658 12.2438 11.98 11.2532 11.74 10.8698ZM11.33 9.45982C12.16 6.80984 11.88 5.96985 11.25 6.05984C10.59 6.16984 10.68 8.04982 11.33 9.45982Z" fill="#FF2116"/>
<path d="M3.16797 0.431641H16.4668C17.186 0.431641 17.8767 0.715549 18.3887 1.2207L22.7539 5.52637C23.275 6.04048 23.5684 6.74259 23.5684 7.47461V26.3516C23.5684 27.8626 22.3431 29.0879 20.832 29.0879H3.16797C1.65693 29.0879 0.431641 27.8626 0.431641 26.3516V3.16797C0.431656 1.65694 1.65694 0.431657 3.16797 0.431641Z" stroke="#FF2116" stroke-width="0.864"/>
<path d="M8.38027 23.7742H7.23769V23.1161H8.38027C8.56714 23.1161 8.71847 23.0856 8.83425 23.0247C8.95207 22.9617 9.03839 22.8764 9.09324 22.7687C9.14808 22.659 9.1755 22.5341 9.1755 22.394C9.1755 22.2579 9.14808 22.1309 9.09324 22.0131C9.03839 21.8953 8.95207 21.7998 8.83425 21.7267C8.71847 21.6536 8.56714 21.617 8.38027 21.617H7.51191V25.3921H6.67402V20.9558H8.38027C8.72558 20.9558 9.02011 21.0178 9.26386 21.1417C9.50964 21.2636 9.69652 21.4332 9.82449 21.6505C9.95449 21.8658 10.0195 22.1116 10.0195 22.3879C10.0195 22.6743 9.95449 22.9211 9.82449 23.1283C9.69652 23.3354 9.50964 23.4949 9.26386 23.6066C9.02011 23.7183 8.72558 23.7742 8.38027 23.7742ZM12.003 25.3921H11.0463L11.0524 24.734H12.003C12.261 24.734 12.4773 24.6771 12.652 24.5633C12.8267 24.4476 12.9587 24.282 13.0481 24.0667C13.1375 23.8494 13.1821 23.5894 13.1821 23.2867V23.0582C13.1821 22.8246 13.1568 22.6184 13.106 22.4397C13.0552 22.2609 12.98 22.1106 12.8805 21.9887C12.783 21.8669 12.6621 21.7744 12.5179 21.7115C12.3737 21.6485 12.2082 21.617 12.0213 21.617H11.028V20.9558H12.0213C12.3178 20.9558 12.588 21.0056 12.8318 21.1051C13.0775 21.2047 13.2898 21.3479 13.4686 21.5347C13.6493 21.7196 13.7875 21.941 13.8829 22.199C13.9804 22.4569 14.0292 22.7454 14.0292 23.0643V23.2867C14.0292 23.6036 13.9804 23.892 13.8829 24.152C13.7875 24.41 13.6493 24.6314 13.4686 24.8162C13.2898 25.0011 13.0765 25.1433 12.8287 25.2428C12.5809 25.3423 12.3057 25.3921 12.003 25.3921ZM11.5155 20.9558V25.3921H10.6776V20.9558H11.5155ZM15.58 20.9558V25.3921H14.7421V20.9558H15.58ZM17.3686 22.8723V23.5335H15.3607V22.8723H17.3686ZM17.6032 20.9558V21.617H15.3607V20.9558H17.6032Z" fill="black"/>
</svg>
