<svg width="12" height="11" viewBox="0 0 12 11" fill="none" xmlns="http://www.w3.org/2000/svg">
<path d="M7.7268 1.5128C7.07141 -0.504265 4.21781 -0.504265 3.56243 1.5128C3.36974 2.10584 2.8171 2.50735 2.19354 2.50735C0.0726719 2.50735 -0.809141 5.22129 0.906675 6.46791C1.41114 6.83442 1.62224 7.48409 1.42954 8.07713C0.774162 10.0942 3.08278 11.7715 4.79859 10.5249C5.30306 10.1584 5.98616 10.1584 6.49063 10.5249C8.20645 11.7715 10.5151 10.0942 9.85968 8.07713C9.66699 7.48409 9.87808 6.83442 10.3826 6.46791C12.0984 5.22129 11.2166 2.50735 9.09569 2.50735C8.47213 2.50735 7.91949 2.10584 7.7268 1.5128Z" fill="#2D264B"/>
</svg>
