<svg width="53" height="55" viewBox="0 0 53 55" fill="none" xmlns="http://www.w3.org/2000/svg">
<path d="M49.9964 54.2953C49.2652 54.2953 48.5881 53.9974 48.0735 53.5099C47.9652 53.3744 47.8298 53.239 47.7485 53.0765C47.6402 52.9411 47.5589 52.7786 47.5048 52.6161C47.4235 52.4536 47.3693 52.2911 47.3423 52.1286C47.3152 51.939 47.2881 51.7765 47.2881 51.5869C47.2881 51.2349 47.3693 50.8828 47.5048 50.5578C47.6402 50.2057 47.8298 49.9349 48.0735 49.664C48.6964 49.0411 49.6443 48.7432 50.511 48.9328C50.7006 48.9599 50.8631 49.014 51.0256 49.0953C51.1881 49.1494 51.3506 49.2307 51.486 49.339C51.6485 49.4203 51.7839 49.5557 51.9193 49.664C52.1631 49.9349 52.3527 50.2057 52.4881 50.5578C52.6235 50.8828 52.7048 51.2349 52.7048 51.5869C52.7048 52.2911 52.4068 52.9953 51.9193 53.5099C51.7839 53.6182 51.6485 53.7265 51.486 53.8349C51.3506 53.9432 51.1881 54.0244 51.0256 54.0786C50.8631 54.1599 50.7006 54.214 50.511 54.2411C50.3485 54.2682 50.1589 54.2953 49.9964 54.2953Z" fill="#1A8DE9" fill-opacity="0.5"/>
<path d="M36.4541 25.8848C29.7374 25.8848 24.2666 31.3556 24.2666 38.0723C24.2666 44.7889 29.7374 50.2598 36.4541 50.2598C43.1708 50.2598 48.6416 44.7889 48.6416 38.0723C48.6416 31.3285 43.1708 25.8848 36.4541 25.8848Z" fill="#1A8DE9" fill-opacity="0.5"/>
<path d="M45.7979 13.5078V20.3057C45.7979 22.2286 43.8479 23.4745 42.0333 22.7974C39.7583 21.9578 37.2396 21.6328 34.5854 21.9036C28.1396 22.6078 21.5312 28.8099 20.4479 35.2286C19.5542 40.5641 21.2604 45.5474 24.5375 49.0682C26.0271 50.6932 25.025 53.3203 22.8313 53.5641C20.9625 53.7807 19.1208 53.7266 18.0917 52.9682L3.19583 41.837C1.43542 40.5099 0 37.6391 0 35.4182V13.5078C0 10.4474 2.32917 7.08906 5.17292 6.00573L20.0687 0.426563C21.6125 -0.142187 24.1583 -0.142187 25.7021 0.426563L40.5979 6.00573C43.4688 7.08906 45.7979 10.4474 45.7979 13.5078Z" fill="#1A8DE9" fill-opacity="0.5"/>
</svg>
