<svg width="24" height="24" viewBox="0 0 24 24" fill="none" xmlns="http://www.w3.org/2000/svg">
<path d="M12.0273 0H11.9727C5.36034 0 0 5.36035 0 11.9727V12.0273C0 18.6397 5.36034 24 11.9727 24H12.0273C18.6397 24 24 18.6397 24 12.0273V11.9727C24 5.36035 18.6397 0 12.0273 0Z" fill="#2F3341"/>
<path d="M4.54688 11.5913C4.58052 11.5745 4.61417 11.5585 4.64696 11.5434C5.21705 11.2794 5.7947 11.0322 6.37152 10.785C6.40263 10.785 6.45475 10.7488 6.48418 10.737C6.52874 10.7177 6.57331 10.6992 6.61788 10.6799C6.70364 10.6429 6.78941 10.6067 6.87434 10.5697C7.04587 10.4966 7.21654 10.4234 7.38807 10.3503L8.41473 9.91049C9.09917 9.61788 9.78447 9.32443 10.4689 9.03182C11.1534 8.73921 11.8386 8.44576 12.5231 8.15314C13.2075 7.86053 13.8928 7.56709 14.5772 7.27447C15.2617 6.98186 15.947 6.68841 16.6314 6.3958C16.7836 6.33021 16.9484 6.23267 17.1115 6.20409C17.2486 6.1797 17.3823 6.13262 17.5202 6.10655C17.7817 6.05694 18.0701 6.03676 18.3206 6.14523C18.4072 6.18307 18.4871 6.23604 18.5536 6.30247C18.8714 6.61694 18.8268 7.13321 18.7596 7.57549C18.2912 10.658 17.8229 13.7413 17.3537 16.8239C17.2898 17.2468 17.2023 17.7109 16.8685 17.9783C16.586 18.2045 16.1841 18.2297 15.8351 18.1339C15.4862 18.0372 15.1784 17.8345 14.8766 17.6353C13.6246 16.8062 12.3717 15.9771 11.1197 15.1481C10.8221 14.9513 10.4908 14.694 10.4941 14.3367C10.4958 14.1214 10.6245 13.9297 10.7556 13.759C11.8437 12.3397 13.4135 11.3643 14.5814 10.0106C14.7462 9.81968 14.8757 9.47494 14.6496 9.36479C14.515 9.29921 14.3603 9.38833 14.2375 9.47326C12.6938 10.5453 11.1508 11.6182 9.60706 12.6903C9.10339 13.0401 8.57535 13.4 7.96826 13.4857C7.42508 13.5631 6.87854 13.4117 6.35302 13.257C5.91242 13.1275 5.47265 12.9947 5.03457 12.8576C4.80166 12.7853 4.56118 12.7071 4.38124 12.5432C4.2013 12.3792 4.09789 12.1034 4.20636 11.8848C4.27447 11.7477 4.40648 11.6611 4.54522 11.5905L4.54688 11.5913Z" fill="#FEFFFC"/>
</svg>
