<svg width="24" height="24" viewBox="0 0 24 24" fill="none" xmlns="http://www.w3.org/2000/svg">
<path d="M12.0273 0H11.9727C5.36035 0 0 5.36035 0 11.9727V12.0273C0 18.6397 5.36035 24 11.9727 24H12.0273C18.6397 24 24 18.6397 24 12.0273V11.9727C24 5.36035 18.6397 0 12.0273 0Z" fill="#2F3341"/>
<path d="M17.801 8.68146V10.9475C17.4049 10.9088 16.8903 10.8189 16.3211 10.6103C15.5778 10.3379 15.0245 9.96541 14.6621 9.67701V14.257L14.6529 14.2427C14.6588 14.3336 14.6621 14.4261 14.6621 14.5194C14.6621 16.7938 12.8114 18.6454 10.5361 18.6454C8.26084 18.6454 6.41016 16.7938 6.41016 14.5194C6.41016 12.2449 8.26084 10.3926 10.5361 10.3926C10.759 10.3926 10.9776 10.4102 11.1912 10.4447V12.678C10.986 12.6048 10.7657 12.5653 10.5361 12.5653C9.45903 12.5653 8.58204 13.4414 8.58204 14.5194C8.58204 15.5973 9.45903 16.4735 10.5361 16.4735C11.6133 16.4735 12.4902 15.5965 12.4902 14.5194C12.4902 14.479 12.4894 14.4387 12.4869 14.3983V5.49805H14.7513C14.7597 5.68976 14.7672 5.88315 14.7756 6.07486C14.7908 6.4524 14.9253 6.8148 15.1599 7.11161C15.4349 7.46056 15.841 7.86584 16.4111 8.18957C16.945 8.49143 17.4461 8.62176 17.801 8.68314V8.68146Z" fill="white"/>
</svg>
