<svg width="24" height="24" viewBox="0 0 24 24" fill="none" xmlns="http://www.w3.org/2000/svg">
<path d="M12.1596 11.12C12.1296 11.12 12.1096 11.12 12.0796 11.12C12.0296 11.11 11.9596 11.11 11.8996 11.12C8.99957 11.03 6.80957 8.75 6.80957 5.94C6.80957 3.08 9.13957 0.75 11.9996 0.75C14.8596 0.75 17.1896 3.08 17.1896 5.94C17.1796 8.75 14.9796 11.03 12.1896 11.12C12.1796 11.12 12.1696 11.12 12.1596 11.12ZM11.9996 2.25C9.96957 2.25 8.30957 3.91 8.30957 5.94C8.30957 7.94 9.86957 9.55 11.8596 9.62C11.9096 9.61 12.0496 9.61 12.1796 9.62C14.1396 9.53 15.6796 7.92 15.6896 5.94C15.6896 3.91 14.0296 2.25 11.9996 2.25Z" fill="#798A9A"/>
<path d="M12.1696 22.05C10.2096 22.05 8.23961 21.55 6.74961 20.55C5.35961 19.63 4.59961 18.37 4.59961 17C4.59961 15.63 5.35961 14.36 6.74961 13.43C9.74961 11.44 14.6096 11.44 17.5896 13.43C18.9696 14.35 19.7396 15.61 19.7396 16.98C19.7396 18.35 18.9796 19.62 17.5896 20.55C16.0896 21.55 14.1296 22.05 12.1696 22.05ZM7.57961 14.69C6.61961 15.33 6.09961 16.15 6.09961 17.01C6.09961 17.86 6.62961 18.68 7.57961 19.31C10.0696 20.98 14.2696 20.98 16.7596 19.31C17.7196 18.67 18.2396 17.85 18.2396 16.99C18.2396 16.14 17.7096 15.32 16.7596 14.69C14.2696 13.03 10.0696 13.03 7.57961 14.69Z" fill="#798A9A"/>
</svg>
