<svg width="65" height="65" viewBox="0 0 65 65" fill="none" xmlns="http://www.w3.org/2000/svg">
<path d="M32.5003 5.41675C25.4045 5.41675 19.6357 11.1855 19.6357 18.2813C19.6357 25.2417 25.0795 30.8751 32.1753 31.1188C32.392 31.0917 32.6087 31.0917 32.7712 31.1188C32.8253 31.1188 32.8524 31.1188 32.9066 31.1188C32.9337 31.1188 32.9337 31.1188 32.9607 31.1188C39.8941 30.8751 45.3378 25.2417 45.3649 18.2813C45.3649 11.1855 39.5962 5.41675 32.5003 5.41675Z" fill="#B0BAC4"/>
<path d="M46.2586 38.3228C38.7023 33.2853 26.3794 33.2853 18.769 38.3228C15.3294 40.6249 13.4336 43.7395 13.4336 47.0707C13.4336 50.402 15.3294 53.4895 18.7419 55.7645C22.5336 58.3103 27.5169 59.5832 32.5003 59.5832C37.4836 59.5832 42.4669 58.3103 46.2586 55.7645C49.6711 53.4624 51.5669 50.3749 51.5669 47.0166C51.5398 43.6853 49.6711 40.5978 46.2586 38.3228Z" fill="#B0BAC4"/>
</svg>
