<svg width="55" height="55" viewBox="0 0 55 55" fill="none" xmlns="http://www.w3.org/2000/svg">
<path d="M54.2487 35.3447V35.3718C54.032 38.9197 51.1341 41.7635 47.5049 41.7635C43.7404 41.7635 40.7341 38.7031 40.7341 34.9926C40.7341 39.1364 36.9154 42.4676 32.582 41.6281V27.0843C32.582 25.351 34.1799 24.051 35.8862 24.4301L40.7341 25.5135L42.0341 25.8114L47.5591 27.0572C48.8862 27.3281 50.1049 27.7885 51.1612 28.4656C51.1612 28.4926 51.1883 28.4926 51.1883 28.4926C51.4591 28.6822 51.7299 28.8989 51.9737 29.1426C53.2195 30.3885 54.032 32.2031 54.2216 34.8572C54.2216 35.0197 54.2487 35.1822 54.2487 35.3447Z" fill="#9528D9" fill-opacity="0.5"/>
<path d="M54.2487 43.4426V47.3968C54.2487 51.1343 51.2154 54.1676 47.4779 54.1676H35.2091C33.7466 54.1676 32.582 53.003 32.582 51.5405V45.6905C35.4799 46.0426 38.5404 45.203 40.7341 43.4426C42.5758 44.9322 44.932 45.826 47.5049 45.826C50.0237 45.826 52.3799 44.9322 54.2487 43.4426Z" fill="#9528D9" fill-opacity="0.5"/>
<path d="M23.7792 7.15094L11.7813 1.2197C5.30833 -1.94905 0 1.27386 0 8.3697V48.5614C0 51.6489 2.57292 54.1676 5.71458 54.1676H25.8104C27.3 54.1676 28.5187 52.9489 28.5187 51.4593V14.653C28.5187 11.8093 26.3792 8.42386 23.7792 7.15094ZM18.9583 31.8239H9.56042C8.45 31.8239 7.52917 30.903 7.52917 29.7926C7.52917 28.6822 8.45 27.7614 9.56042 27.7614H18.9583C20.0687 27.7614 20.9896 28.6822 20.9896 29.7926C20.9896 30.903 20.0958 31.8239 18.9583 31.8239ZM18.9583 20.9905H9.56042C8.45 20.9905 7.52917 20.0697 7.52917 18.9593C7.52917 17.8489 8.45 16.928 9.56042 16.928H18.9583C20.0687 16.928 20.9896 17.8489 20.9896 18.9593C20.9896 20.0697 20.0958 20.9905 18.9583 20.9905Z" fill="#9528D9" fill-opacity="0.5"/>
</svg>
