<svg width="24" height="24" viewBox="0 0 24 24" fill="none" xmlns="http://www.w3.org/2000/svg">
<path d="M12.0273 0H11.9727C5.36035 0 0 5.36035 0 11.9727V12.0273C0 18.6397 5.36035 24 11.9727 24H12.0273C18.6397 24 24 18.6397 24 12.0273V11.9727C24 5.36035 18.6397 0 12.0273 0Z" fill="#2F3341"/>
<path d="M14.339 15.5095C11.2674 15.5095 8.76842 13.0097 8.76758 9.93814C8.76842 9.15952 9.40241 8.52637 10.1793 8.52637C10.2592 8.52637 10.3383 8.53309 10.4139 8.54655C10.5804 8.57429 10.7385 8.63063 10.884 8.71556C10.905 8.72817 10.9193 8.74835 10.9226 8.7719L11.2472 10.8176C11.2514 10.8412 11.2438 10.8656 11.2279 10.8832C11.0488 11.0817 10.8201 11.2246 10.5653 11.2961L10.4425 11.3306L10.4888 11.4491C10.9075 12.5153 11.7601 13.3671 12.8271 13.7875L12.9457 13.8346L12.9802 13.7118C13.0516 13.457 13.1946 13.2283 13.393 13.0492C13.4073 13.0358 13.4267 13.029 13.446 13.029C13.4502 13.029 13.4544 13.029 13.4594 13.0299L15.5052 13.3545C15.5296 13.3587 15.5498 13.3721 15.5624 13.3931C15.6465 13.5386 15.7028 13.6975 15.7314 13.864C15.7448 13.938 15.7507 14.0162 15.7507 14.0978C15.7507 14.8755 15.1176 15.5087 14.339 15.5095Z" fill="#FDFDFD"/>
<path d="M19.7859 11.3259C19.6202 9.4542 18.7626 7.71788 17.371 6.43728C15.971 5.14912 14.1548 4.43945 12.2554 4.43945C8.08649 4.43945 4.69456 7.83139 4.69456 12.0003C4.69456 13.3994 5.0805 14.7624 5.81118 15.9497L4.18164 19.5569L9.39904 19.0011C10.3063 19.3727 11.2665 19.5611 12.2545 19.5611C12.5143 19.5611 12.7809 19.5476 13.0483 19.5199C13.2837 19.4946 13.5217 19.4576 13.7554 19.4105C17.2466 18.7051 19.7951 15.6066 19.8153 12.0406V12.0003C19.8153 11.7732 19.8052 11.5462 19.7851 11.3267L19.7859 11.3259ZM9.6 17.4178L6.71341 17.7255L7.57527 15.816L7.40289 15.5847C7.39028 15.5679 7.37767 15.5511 7.36337 15.5318C6.61503 14.4984 6.21983 13.2775 6.21983 12.0011C6.21983 8.67306 8.92732 5.96557 12.2554 5.96557C15.3732 5.96557 18.0159 8.39811 18.2707 11.5033C18.2842 11.6698 18.2917 11.8371 18.2917 12.0019C18.2917 12.049 18.2909 12.0953 18.29 12.1449C18.2261 14.9289 16.2813 17.2933 13.5603 17.8954C13.3526 17.9416 13.1399 17.9769 12.928 17.9996C12.7077 18.0249 12.4815 18.0375 12.257 18.0375C11.4574 18.0375 10.6805 17.8827 9.94642 17.5767C9.86486 17.5439 9.78498 17.5086 9.71014 17.4724L9.60084 17.4194L9.6 17.4178Z" fill="#FDFDFD"/>
</svg>
