<svg width="24" height="24" viewBox="0 0 24 24" fill="none" xmlns="http://www.w3.org/2000/svg">
<path d="M23.9983 12.0004C23.9983 18.0612 19.5059 23.0717 13.6698 23.8848C13.1242 23.9605 12.5659 24 11.9992 24C11.345 24 10.7026 23.9479 10.0771 23.847C4.36379 22.9271 0 17.9729 0 12.0004C0 5.37294 5.37276 0 12 0C18.6272 0 24 5.37294 24 12.0004H23.9983Z" fill="#2F3341"/>
<path d="M4.86455 5.29395L10.3987 12.6933L4.83008 18.7095H6.08372L10.9596 13.4425L14.8987 18.7095H19.1642L13.3189 10.8939L18.5024 5.29395H17.2488L12.7589 10.1447L9.13081 5.29395H4.86539H4.86455ZM6.7076 6.21718H8.66668L17.3194 17.7863H15.3603L6.7076 6.21718Z" fill="white"/>
</svg>
