<svg width="24" height="24" viewBox="0 0 24 24" fill="none" xmlns="http://www.w3.org/2000/svg">
<path d="M24 12C24 5.37258 18.6274 0 12 0C5.37259 0 0 5.37258 0 12C0 18.6274 5.37259 24 12 24C18.6274 24 24 18.6274 24 12Z" fill="#2F3341"/>
<path d="M19.5547 9.5134C19.4603 8.60187 19.2571 7.59422 18.5092 7.06467C17.9299 6.65402 17.1684 6.63883 16.4576 6.63968C14.9549 6.63968 13.4515 6.64221 11.9488 6.64305C10.5035 6.64474 9.05822 6.64558 7.61292 6.64727C7.00917 6.64727 6.42228 6.60089 5.86153 6.86229C5.38005 7.08659 5.00313 7.51327 4.7763 7.98801C4.46177 8.64825 4.396 9.3962 4.35806 10.1264C4.28807 11.4562 4.29566 12.7894 4.37914 14.1183C4.4407 15.088 4.59669 16.1597 5.34632 16.7778C6.01079 17.3251 6.94846 17.3521 7.81024 17.3529C10.5457 17.3554 13.282 17.358 16.0182 17.3597C16.369 17.3605 16.735 17.3538 17.0925 17.315C17.7958 17.2391 18.4661 17.0375 18.9181 16.5164C19.3743 15.9911 19.4915 15.26 19.5607 14.5677C19.7293 12.888 19.7276 11.1923 19.5547 9.5134ZM10.3669 14.3544V9.64495L14.4448 11.9992L10.3669 14.3544Z" fill="white"/>
</svg>
